<?xml version="1.0" encoding="utf-8"?>
<!-- Generator: Adobe Illustrator 16.0.0, SVG Export Plug-In . SVG Version: 6.00 Build 0)  -->
<!DOCTYPE svg PUBLIC "-//W3C//DTD SVG 1.1//EN" "http://www.w3.org/Graphics/SVG/1.1/DTD/svg11.dtd">
<svg version="1.1" xmlns="http://www.w3.org/2000/svg" xmlns:xlink="http://www.w3.org/1999/xlink" x="0px" y="0px" width="435.2px"
	 height="104.4px" viewBox="0 0 435.2 104.4" style="enable-background:new 0 0 435.2 104.4;" xml:space="preserve">
<style type="text/css">
<![CDATA[
	.st0{fill-rule:evenodd;clip-rule:evenodd;fill:#FFFFFF;stroke:#FFFFFF;stroke-width:0.216;stroke-miterlimit:2.6131;}
	.st1{fill:#FFFFFF;}
]]>
</style>
<g id="Layer_2">
	<g>
		<path class="st1" d="M350.9,20.8c-0.3,1.3,0,2.1-0.1,3.4c-0.2,1.6-1.5,2.2-1.8,2.7c-0.5,0.6-4.6,0.8-5.1,0.6
			c-0.8-0.1-2-0.4-2.8-1.1c-0.8-0.8-1.1-2.4-1-2.8c0.4-2.9,1.9-3.5,4-5.8c0.7-0.8,2.6-2.2,3.5-2.8c2.6-1.9,5.6-3.5,7.9-4.6
			c2.9-1.4,8.1-3.1,13.5-3.5c2.1-0.2,4.3-0.2,6.4,0c2,0.2,5.2,0.7,7.1,1.5c2.6,1,3.8,2.5,4,4.4c0.2,1.6-0.5,3.5-1.7,5.4
			c-1.7,2.5-4.5,5.1-7.8,7.4c-2.5,1.7-6.5,3.9-10.8,6.1c-2.5,1.4-5.2,2.7-7.7,4c-4.1,2.1-7.7,4-9.8,5.3c-2.1,1.2-4,2.5-5.8,3.8
			c-2.8,2-5.3,3.9-7.5,5.8c-4.8,4-6.8,6.7-6.5,7.6c0.1,0.7,3.4,0.6,7.7,0c5-0.7,11.1-1.1,14.2-1.3c4.2-0.3,8.1-0.9,11.4-0.9
			c3.4,0,9.2-0.1,13.6,0.2c3.1,0.3,5.2,1,5.9,1.2c1.3,0.5,1.1,1.2,0,1.1c-0.7,0-2,0.1-3.6,0.1c-2.8-0.1-6.3-0.5-7.3-0.5
			c-3.7-0.2-9.8,0-14.9,0.5c-4.2,0.4-9.8,1.7-14.7,3c-5.6,1.5-10.5,3.1-13.8,4.6c-1.3,0.6-3.5,1.8-4.7,2c-2.1,0.4-4.3-0.2-5.6-0.7
			c-0.7-0.3-0.9-1.1-1.5-2.1c-0.6-0.9-0.2-2.9-0.1-3.2c0.2-0.7,2.2-3.3,5.3-5.8c2.8-2.3,5.9-5,9.8-7.7c3.8-2.6,8.4-5.2,12.1-7.3
			c3.6-2.1,6.5-3.6,7.2-4.1c2.8-1.8,8.4-5,13.7-8.7c2.7-1.9,5.2-3.9,7.4-6c2.4-2.4,5-5.3,6.1-7.9c0.7-2-0.6-4.7-3.3-5.2
			c-1.9-0.4-3.7-0.5-5.5-0.4c-4.2,0.2-7.8,1.4-9.2,2.2C354.8,13.7,351.5,18.8,350.9,20.8z"/>
		<path class="st1" d="M390.9,29.7c-0.7-0.5-1-2-0.4-3.9c0.5-1.8,3.7-3.7,3.9-3.8c2.4-1,5.4-0.5,8.8-2.1c1.4-0.7,2.8-0.5,5.5-2.1
			c2.1-1.3,4.9-3.2,6.8-4.6c3.7-2.9,7.3-6.6,8.6-6.9c0.6-0.1,1.4-0.5,2.4-0.2c0.9,0.2,1.9,1.1,2.1,1.4c0.2,0.4,0.7,1.1,0.7,2.1
			c0,1.1-0.5,2.4-1,3.1c-0.7,0.9-2.8,2.1-4.5,3.9c-1.4,1.5-2.6,3.6-3.6,5c-4.5,5.9-8.2,10.9-9.6,13.3c-2,3.1-6.8,9.6-8.6,13.3
			c-2.1,4.1-4.6,9.6-5.7,12.3c-0.2,0.6-0.7,2.2-0.9,3.4c-0.1,0.4-1.2,3.7-1.2,3.7c-0.8,2.2-0.8,4.1-1.9,4.2
			c-0.9,0.1-0.6-2.5-0.8-3.3c-0.1-0.6,0.7-2.6,0.7-3c0.5-1.6,1.4-6.4,3.2-11.6c0.7-2.2,1.6-4.9,2.8-6.8c0.8-1.4,2.1-4.1,3.4-7
			c1.8-3.9,3.7-8.2,5-10c2.4-3.6,5.4-8.8,6.4-11.2c0.3-0.7-0.4-0.8-1-0.5c-1.9,1-4,2.7-7.4,5.1c-1.4,0.9-3.5,2.9-5.2,4.2
			c-1.7,1.3-2.8,1.9-4,2.4C393.8,31.1,391.4,30,390.9,29.7z"/>
	</g>
</g>
<g id="Layer_1">
	<g>
		<g>
			<path class="st0" d="M40.4,0c17.8,0,32.9,11.6,38.3,27.6c-1.2-0.4-2.5-0.5-3.8-0.6c-1.5,0-3,0.3-4.4,0.8c-4.9-11.7-16.5-20-30-20
				c-18,0-32.5,14.6-32.5,32.5c0,18,14.6,32.5,32.5,32.5c0.8,0,1.5,0,2.2-0.1c1.5,2.3,5,5.1,8,6.6c-3.3,0.8-6.7,1.3-10.2,1.3
				C18.1,80.7,0,62.6,0,40.4C0,18.1,18.1,0,40.4,0L40.4,0z M59.8,66.4c2.6,2.1,5.7,2.7,8.9,2.6c3.6-3.5,6.5-7.7,8.5-12.4
				c-0.8,0.2-1.6,0.2-2.5,0.2c-2,0-4-0.5-5.7-1.3C66.8,59.9,63.6,63.5,59.8,66.4z"/>
			<path class="st0" d="M74.8,27c7.3,0,13.3,6,13.3,13.3c0,7.4-6,13.3-13.3,13.3c-7.4,0-13.3-6-13.3-13.3C61.5,33,67.4,27,74.8,27z"
				/>
		</g>
		<g>
			<path class="st0" d="M70.3,80.8c-17.8-0.3-32.7-12.2-37.7-28.3c1.2,0.4,2.5,0.6,3.8,0.6c1.5,0,3.1-0.2,4.5-0.7
				C45.5,64.2,57,72.7,70.5,72.9c18,0.4,32.8-13.9,33.2-31.9c0.3-18-13.9-32.8-31.9-33.2c-0.8,0-1.5,0-2.2,0
				c-1.5-2.3-4.9-5.2-7.8-6.8c3.3-0.8,6.7-1.2,10.2-1.1c22.3,0.4,40,18.8,39.6,41.1C111,63.5,92.6,81.2,70.3,80.8L70.3,80.8z
				 M52.1,14c-2.5-2.1-5.7-2.8-8.9-2.8c-3.6,3.5-6.6,7.6-8.8,12.2c0.8-0.1,1.6-0.2,2.5-0.2c2,0,4,0.5,5.7,1.4
				C45,20.4,48.3,16.8,52.1,14z"/>
			<path class="st0" d="M36.4,53.1c-7.3-0.2-13.2-6.2-13.1-13.6c0.1-7.4,6.2-13.2,13.6-13.1c7.3,0.1,13.2,6.2,13,13.6
				C49.8,47.4,43.7,53.2,36.4,53.1z"/>
		</g>
	</g>
	<g>
		<path class="st1" d="M163.2,68h-30.1c-1.2,0-2.3-0.2-3.3-0.6c-1-0.4-2-0.9-2.7-1.6c-0.8-0.7-1.4-1.5-1.8-2.4
			c-0.5-0.9-0.7-1.9-0.7-2.9V35.2c0-1.8,0.6-3.3,1.9-4.6c1.3-1.3,2.8-2.2,4.8-2.6l19.1-3.8V12h12.9V68z M150.3,56.8V35.6l-12.9,2.6
			v18.6H150.3z"/>
		<path class="st1" d="M206.1,68h-30c-1.2,0-2.3-0.2-3.3-0.6c-1-0.4-1.9-0.9-2.7-1.6c-0.8-0.7-1.4-1.5-1.8-2.4
			c-0.5-0.9-0.7-1.9-0.7-3V35.1v-5.9l12.9-2v29.6h12.8V25.1l12.9-2V68z"/>
		<path class="st1" d="M249.6,68h-12.9V35.5l-12.8,2.6V68h-4.3H211V23.1h12.9v3.4l15.2-3c1.3-0.3,2.6-0.3,3.9,0
			c1.2,0.3,2.4,0.7,3.3,1.4c1,0.7,1.8,1.5,2.4,2.6c0.6,1,0.9,2.1,0.9,3.3V68z"/>
		<path class="st1" d="M267.6,20.8h-12.9v-8.7h12.9V20.8z M267.9,68.1h-13.2V23.3h12.9L267.9,68.1z"/>
		<path class="st1" d="M310.9,68h-30.1c-1.2,0-2.3-0.2-3.3-0.6c-1-0.4-1.9-0.9-2.7-1.6c-0.8-0.7-1.4-1.5-1.8-2.4
			c-0.5-0.9-0.7-1.9-0.7-2.9v-10c0-1,0.2-2,0.7-2.9c0.5-0.9,1.1-1.7,1.8-2.4c0.8-0.7,1.7-1.2,2.7-1.6c1-0.4,2.1-0.6,3.3-0.6H298
			v-7.6l-25.8,5.2V29.2l28.1-5.6c0.1,0,0.2,0,0.2-0.1c1.3-0.2,2.6-0.2,3.9,0.1c1.3,0.3,2.4,0.7,3.3,1.4c1,0.7,1.7,1.5,2.3,2.6
			c0.6,1,0.8,2.1,0.8,3.3V68z M298,56.8V53h-12.9v3.8H298z"/>
	</g>
	<g>
	</g>
	<g>
	</g>
	<g>
	</g>
	<g>
	</g>
	<g>
	</g>
	<g>
	</g>
</g>
</svg>
