<?xml version="1.0" encoding="UTF-8" standalone="no"?>
<!-- Generator: Adobe Illustrator 16.0.0, SVG Export Plug-In . SVG Version: 6.00 Build 0)  -->

<svg
   version="1.1"
   x="0px"
   y="0px"
   width="162.7"
   height="19.9"
   viewBox="0 0 162.7 19.9"
   xml:space="preserve"
   id="svg60"
   xmlns:xlink="http://www.w3.org/1999/xlink"
   xmlns="http://www.w3.org/2000/svg"
   xmlns:svg="http://www.w3.org/2000/svg"><defs
   id="defs64"><linearGradient
     id="linearGradient1028"><stop
       style="stop-color:#000000;stop-opacity:0;"
       offset="0"
       id="stop1026" /></linearGradient><linearGradient
     xlink:href="#linearGradient1028"
     id="linearGradient1172"
     gradientUnits="userSpaceOnUse"
     x1="20.224899"
     y1="11.482411"
     x2="157.60066"
     y2="11.482411"
     gradientTransform="translate(2)" /><linearGradient
     xlink:href="#linearGradient1028"
     id="linearGradient1485"
     gradientUnits="userSpaceOnUse"
     gradientTransform="translate(2)"
     x1="20.224899"
     y1="11.482411"
     x2="157.60066"
     y2="11.482411" /><linearGradient
     xlink:href="#linearGradient1028"
     id="linearGradient1487"
     gradientUnits="userSpaceOnUse"
     gradientTransform="translate(2)"
     x1="20.224899"
     y1="11.482411"
     x2="157.60066"
     y2="11.482411" /><linearGradient
     xlink:href="#linearGradient1028"
     id="linearGradient1489"
     gradientUnits="userSpaceOnUse"
     gradientTransform="translate(2)"
     x1="20.224899"
     y1="11.482411"
     x2="157.60066"
     y2="11.482411" /><linearGradient
     xlink:href="#linearGradient1028"
     id="linearGradient1491"
     gradientUnits="userSpaceOnUse"
     gradientTransform="translate(2)"
     x1="20.224899"
     y1="11.482411"
     x2="157.60066"
     y2="11.482411" /><linearGradient
     xlink:href="#linearGradient1028"
     id="linearGradient1493"
     gradientUnits="userSpaceOnUse"
     gradientTransform="translate(2)"
     x1="20.224899"
     y1="11.482411"
     x2="157.60066"
     y2="11.482411" /><linearGradient
     xlink:href="#linearGradient1028"
     id="linearGradient1495"
     gradientUnits="userSpaceOnUse"
     gradientTransform="translate(2)"
     x1="20.224899"
     y1="11.482411"
     x2="157.60066"
     y2="11.482411" /><linearGradient
     xlink:href="#linearGradient1028"
     id="linearGradient1497"
     gradientUnits="userSpaceOnUse"
     gradientTransform="translate(2)"
     x1="20.224899"
     y1="11.482411"
     x2="157.60066"
     y2="11.482411" /><linearGradient
     xlink:href="#linearGradient1028"
     id="linearGradient1499"
     gradientUnits="userSpaceOnUse"
     gradientTransform="translate(2)"
     x1="20.224899"
     y1="11.482411"
     x2="157.60066"
     y2="11.482411" /><linearGradient
     xlink:href="#linearGradient1028"
     id="linearGradient1501"
     gradientUnits="userSpaceOnUse"
     gradientTransform="translate(2)"
     x1="20.224899"
     y1="11.482411"
     x2="157.60066"
     y2="11.482411" /><linearGradient
     xlink:href="#linearGradient1028"
     id="linearGradient1503"
     gradientUnits="userSpaceOnUse"
     gradientTransform="translate(2)"
     x1="20.224899"
     y1="11.482411"
     x2="157.60066"
     y2="11.482411" /><linearGradient
     xlink:href="#linearGradient1028"
     id="linearGradient1505"
     gradientUnits="userSpaceOnUse"
     gradientTransform="translate(2)"
     x1="20.224899"
     y1="11.482411"
     x2="157.60066"
     y2="11.482411" /></defs>
<style
   type="text/css"
   id="style18">
<![CDATA[
	.st0{fill:#fff;}
]]>
</style>

<g
   id="g57">
		<g
   id="g1386"><g
     aria-label="NONTONDRAMA"
     id="text297"
     style="fill:#ffffff;stroke:url(#linearGradient1172)"><path
       d="m 29.784899,19.978411 -5.928,-14.1360003 h -0.072 V 19.978411 h -1.56 V 2.9864107 h 2.088 l 5.88,14.1360003 h 0.072 V 2.9864107 h 1.536 V 19.978411 Z"
       style="stroke:url(#linearGradient1485)"
       id="path1174" /><path
       d="m 46.200873,11.458411 q 0,1.992 -0.384,3.648 -0.384,1.632 -1.104,2.808 -0.72,1.176 -1.752,1.824 -1.032,0.648 -2.352,0.648 -1.32,0 -2.376,-0.648 -1.032,-0.648 -1.776,-1.824 -0.72,-1.176 -1.104,-2.808 -0.384,-1.656 -0.384,-3.648 0,-1.9680003 0.36,-3.6000003 0.384,-1.656 1.104,-2.808 0.72,-1.176 1.752,-1.824 1.056,-0.648 2.424,-0.648 1.32,0 2.352,0.648 1.032,0.648 1.752,1.824 0.72,1.152 1.104,2.808 0.384,1.632 0.384,3.6000003 z m -1.752,0 q 0,-1.5360003 -0.24,-2.8800003 -0.24,-1.344 -0.744,-2.328 -0.48,-0.984 -1.2,-1.56 -0.72,-0.576 -1.656,-0.576 -0.984,0 -1.728,0.576 -0.72,0.576 -1.2,1.56 -0.48,0.984 -0.72,2.328 -0.24,1.344 -0.24,2.8800003 0,1.536 0.24,2.88 0.24,1.344 0.72,2.352 0.48,1.008 1.2,1.584 0.744,0.576 1.728,0.576 0.96,0 1.68,-0.576 0.72,-0.576 1.2,-1.584 0.48,-1.008 0.72,-2.352 0.24,-1.344 0.24,-2.88 z"
       style="stroke:url(#linearGradient1487)"
       id="path1176" /><path
       d="m 56.928866,19.978411 -5.928,-14.1360003 h -0.072 V 19.978411 h -1.56 V 2.9864107 h 2.088 l 5.88,14.1360003 h 0.072 V 2.9864107 h 1.536 V 19.978411 Z"
       style="stroke:url(#linearGradient1489)"
       id="path1178" /><path
       d="M 65.80884,4.4264107 V 19.978411 h -1.656 V 4.4264107 h -3.264 v -1.44 h 8.208 v 1.44 z"
       style="stroke:url(#linearGradient1491)"
       id="path1180" /><path
       d="m 81.264792,11.458411 q 0,1.992 -0.384,3.648 -0.384,1.632 -1.104,2.808 -0.72,1.176 -1.752,1.824 -1.032,0.648 -2.352,0.648 -1.32,0 -2.376,-0.648 -1.032,-0.648 -1.776,-1.824 -0.72,-1.176 -1.104,-2.808 -0.384,-1.656 -0.384,-3.648 0,-1.9680003 0.36,-3.6000003 0.384,-1.656 1.104,-2.808 0.72,-1.176 1.752,-1.824 1.056,-0.648 2.424,-0.648 1.32,0 2.352,0.648 1.032,0.648 1.752,1.824 0.72,1.152 1.104,2.808 0.384,1.632 0.384,3.6000003 z m -1.752,0 q 0,-1.5360003 -0.24,-2.8800003 -0.24,-1.344 -0.744,-2.328 -0.48,-0.984 -1.2,-1.56 -0.72,-0.576 -1.656,-0.576 -0.984,0 -1.728,0.576 -0.72,0.576 -1.2,1.56 -0.48,0.984 -0.72,2.328 -0.24,1.344 -0.24,2.8800003 0,1.536 0.24,2.88 0.24,1.344 0.72,2.352 0.48,1.008 1.2,1.584 0.744,0.576 1.728,0.576 0.96,0 1.68,-0.576 0.72,-0.576 1.2,-1.584 0.48,-1.008 0.72,-2.352 0.24,-1.344 0.24,-2.88 z"
       style="stroke:url(#linearGradient1493)"
       id="path1182" /><path
       d="m 91.992785,19.978411 -5.928,-14.1360003 h -0.072 V 19.978411 h -1.56 V 2.9864107 h 2.088 l 5.88,14.1360003 h 0.072 V 2.9864107 h 1.536 V 19.978411 Z"
       style="stroke:url(#linearGradient1495)"
       id="path1184" /><path
       d="m 107.71276,11.506411 q 0,2.088 -0.432,3.672 -0.432,1.584 -1.248,2.664 -0.816,1.056 -1.968,1.608 -1.128,0.528 -2.52,0.528 H 97.896759 V 2.9864107 h 3.672001 q 1.392,0 2.52,0.552 1.152,0.528 1.944,1.608 0.816,1.08 1.248,2.688 0.432,1.584 0.432,3.6720003 z m -1.656,0 q 0,-1.8000003 -0.36,-3.1200003 -0.336,-1.344 -0.96,-2.208 -0.6,-0.864 -1.44,-1.296 -0.816,-0.432 -1.776,-0.432 H 99.552759 V 18.514411 h 1.968001 q 0.96,0 1.776,-0.432 0.84,-0.432 1.44,-1.296 0.624,-0.864 0.96,-2.184 0.36,-1.32 0.36,-3.096 z"
       style="stroke:url(#linearGradient1497)"
       id="path1186" /><path
       d="m 117.79272,19.978411 -3.072,-7.872 h -2.184 v 7.872 h -1.656 V 2.9864107 h 4.08 q 0.84,0 1.608,0.24 0.792,0.216 1.392,0.744 0.624,0.528 0.984,1.392 0.384,0.864 0.384,2.112 0,1.08 -0.288,1.872 -0.264,0.7680003 -0.72,1.2960003 -0.432,0.528 -0.984,0.816 -0.528,0.288 -1.056,0.36 l 3.312,8.16 z m -0.096,-12.4320003 q 0,-0.912 -0.264,-1.512 -0.24,-0.624 -0.672,-0.984 -0.408,-0.36 -0.96,-0.504 -0.528,-0.144 -1.104,-0.144 h -2.16 v 6.3840003 h 2.232 q 1.368,0 2.136,-0.8400003 0.792,-0.864 0.792,-2.4 z"
       style="stroke:url(#linearGradient1499)"
       id="path1188" /><path
       d="m 129.57672,19.978411 -1.032,-4.248 h -5.232 l -1.08,4.248 h -1.704 l 4.32,-16.9920003 h 2.28 l 4.2,16.9920003 z m -3.576,-15.4800003 h -0.096 l -2.352,9.8880003 h 4.752 z"
       style="stroke:url(#linearGradient1501)"
       id="path1190" /><path
       d="M 145.03269,19.978411 V 5.2184107 h -0.072 l -4.176,14.7600003 h -1.56 l -4.152,-14.7600003 h -0.072 V 19.978411 h -1.56 V 2.9864107 h 2.496 l 4.056,14.3520003 h 0.096 l 4.008,-14.3520003 h 2.592 V 19.978411 Z"
       style="stroke:url(#linearGradient1503)"
       id="path1192" /><path
       d="m 157.84866,19.978411 -1.032,-4.248 h -5.232 l -1.08,4.248 h -1.704 l 4.32,-16.9920003 h 2.28 l 4.2,16.9920003 z m -3.576,-15.4800003 h -0.096 l -2.352,9.8880003 h 4.752 z"
       style="stroke:url(#linearGradient1505)"
       id="path1194" /></g><g
     id="g33"
     style="fill:#ffffff">
			<path
   class="st0"
   d="m 16.4,6.3 v 0 -5.8 C 16.4,0.3 16.3,0.1 16.1,0 15.9,-0.1 15.7,-0.1 15.5,0 l -5,2.9 v 0 c -0.3,0.2 -0.3,0.5 -0.2,0.7 l 1.7,3 c 0.1,0.2 0.3,0.3 0.5,0.3 h 3.4 c 0.3,0 0.5,-0.3 0.5,-0.6 z"
   id="path21" />
			<path
   class="st0"
   d="m 11.5,11 5,-2.9 v 0 C 16.8,7.9 17.1,8 17.2,8.3 l 1.7,2.9 c 0.1,0.2 0.1,0.4 0,0.6 l -1.7,2.9 C 17,15 16.7,15 16.5,14.9 v 0 l -5,-2.9 c -0.2,-0.1 -0.3,-0.3 -0.3,-0.5 0.1,-0.2 0.2,-0.4 0.3,-0.5 z"
   id="path23" />
			<path
   class="st0"
   d="m 15.9,15.9 v 0 l -5,-2.9 c -0.2,-0.1 -0.4,-0.1 -0.6,0 -0.2,0.1 -0.3,0.3 -0.3,0.5 v 5.8 0 c 0,0.3 0.2,0.6 0.6,0.6 H 14 c 0.2,0 0.4,-0.1 0.5,-0.3 l 1.7,-2.9 c 0.1,-0.3 0,-0.6 -0.3,-0.8 z"
   id="path25" />
			<path
   class="st0"
   d="m 3.1,15.9 v 0 l 5,-2.9 c 0.2,-0.1 0.4,-0.1 0.6,0 0.2,0.1 0.3,0.3 0.3,0.5 v 5.8 0 c 0,0.3 -0.2,0.6 -0.6,0.6 H 5 C 4.8,19.9 4.6,19.8 4.5,19.6 L 2.8,16.7 c -0.1,-0.3 0,-0.6 0.3,-0.8 z"
   id="path27" />
			<path
   class="st0"
   d="m 3.1,7.1 v 0 l 5,2.9 c 0.2,0.1 0.4,0.1 0.6,0 C 8.9,9.9 9,9.7 9,9.5 v -5.8 0 C 9,3.4 8.8,3.1 8.4,3.1 H 5 C 4.8,3.1 4.6,3.2 4.5,3.4 L 2.8,6.3 c -0.1,0.3 0,0.6 0.3,0.8 z"
   id="path29" />
			<path
   class="st0"
   d="m 7.5,11 -5,-2.9 v 0 C 2.2,8 1.9,8.1 1.8,8.4 L 0.1,11.3 C 0,11.5 0,11.7 0.1,11.9 l 1.7,2.9 C 2,15.1 2.3,15.1 2.5,15 v 0 l 5,-2.9 C 7.7,12 7.8,11.8 7.8,11.6 7.8,11.3 7.7,11.1 7.5,11 Z"
   id="path31" />
		</g></g>
		
		
		
		
		
		
		
		
		
		
		
	</g>
</svg>
