<?xml version="1.0" encoding="utf-8"?>
<!-- Generator: Adobe Illustrator 16.0.0, SVG Export Plug-In . SVG Version: 6.00 Build 0)  -->
<!DOCTYPE svg PUBLIC "-//W3C//DTD SVG 1.1//EN" "http://www.w3.org/Graphics/SVG/1.1/DTD/svg11.dtd">
<svg version="1.1" id="Layer_1" xmlns="http://www.w3.org/2000/svg" xmlns:xlink="http://www.w3.org/1999/xlink" x="0px" y="0px"
	 width="305.4px" height="36px" viewBox="0 0 305.4 36" enable-background="new 0 0 305.4 36" xml:space="preserve">
<g id="Layer_1_1_">
	<path fill="#010101" d="M29.1,11.3L29.1,11.3V1c0-0.4-0.2-0.7-0.5-0.8c-0.3-0.2-0.7-0.2-1,0l-8.9,5.1l0,0c-0.5,0.3-0.6,0.9-0.4,1.3
		l3,5.2c0.2,0.3,0.5,0.5,0.8,0.5h6C28.7,12.3,29.1,11.8,29.1,11.3z"/>
	<path fill="#9264AA" d="M20.5,19.6l8.9-5.1l0,0c0.5-0.3,1.1-0.1,1.3,0.4l3,5.2c0.2,0.3,0.2,0.7,0,1l-3,5.2
		c-0.3,0.5-0.9,0.6-1.3,0.4l0,0l-8.9-5.1c-0.3-0.2-0.5-0.5-0.5-0.8C20,20.1,20.2,19.8,20.5,19.6z"/>
	<path fill="#23AFE5" d="M28.3,28.2L28.3,28.2l-8.9-5.2c-0.3-0.2-0.7-0.2-1,0c-0.3,0.2-0.5,0.5-0.5,0.8v10.3v0c0,0.5,0.4,1,1,1h5.9
		c0.4,0,0.7-0.2,0.9-0.5l3-5.2C29,29.1,28.8,28.5,28.3,28.2z"/>
	<path fill="#81BB41" d="M5.5,28.2L5.5,28.2l8.9-5.2c0.3-0.2,0.7-0.2,1,0c0.3,0.2,0.5,0.5,0.5,0.8v10.3v0c0,0.5-0.4,1-1,1H8.9
		c-0.4,0-0.7-0.2-0.8-0.5l-3-5.2C4.9,29.1,5,28.5,5.5,28.2z"/>
	<path fill="#EB2928" d="M5.5,12.6L5.5,12.6l8.9,5.1c0.3,0.2,0.7,0.2,1,0c0.3-0.2,0.5-0.5,0.5-0.8V6.6v0c0-0.5-0.4-1-1-1H8.9
		c-0.4,0-0.7,0.2-0.8,0.5l-3,5.2C4.9,11.7,5,12.3,5.5,12.6z"/>
	<path fill="#FABA39" d="M13.4,19.6l-8.9-5.1l0,0c-0.5-0.3-1.1-0.1-1.3,0.4l-3,5.2c-0.2,0.3-0.2,0.7,0,1l3,5.2
		c0.3,0.5,0.9,0.6,1.3,0.4l0,0l8.9-5.1c0.3-0.2,0.5-0.5,0.5-0.8C13.8,20.1,13.7,19.8,13.4,19.6z"/>
</g>
<path fill="#171112" d="M57.1,35.2H40.2V4.4h5.9v25.8h11V35.2z"/>
<path fill="#171112" d="M83.6,35.2h-6.2l-2.2-8.1h-8.2l-2.1,8.1h-6l8.7-30.8H75L83.6,35.2z M74.3,22.6l-1.8-7
	c-0.5-1.9-1-4.4-1.4-6.3H71c-0.4,1.9-0.9,4.4-1.4,6.2l-1.8,7H74.3z"/>
<path fill="#171112" d="M107.3,4.4l-9.1,18v12.7h-5.9V22.7L83.6,4.4h6.6l3,7.6c0.9,2.2,1.6,4.1,2.3,6.2h0.1c0.6-2,1.4-4,2.2-6.3
	l3-7.5H107.3z"/>
<path fill="#171112" d="M131.6,35.2h-6.2l-2.2-8.1H115l-2.1,8.1h-6l8.7-30.8h7.4L131.6,35.2z M122.4,22.6l-1.8-7
	c-0.5-1.9-1-4.4-1.4-6.3H119c-0.4,1.9-0.9,4.4-1.4,6.2l-1.8,7H122.4z"/>
<path fill="#171112" d="M150,20.7c2.2,0.8,3.4,2.9,4.1,6c0.9,3.6,1.7,7.3,2.3,8.5h-6.1c-0.4-0.9-1.2-3.6-1.9-7.3
	c-0.8-4-2-5.2-4.8-5.2h-2v12.5h-5.9V4.8c2-0.4,4.9-0.6,7.9-0.6c3.9,0,11.7,0.5,11.7,8.7c0,3.8-2.4,6.5-5.3,7.6V20.7z M144,18.3
	c3.4,0,5.4-2,5.4-4.9c0-4-3-4.7-5.1-4.7c-1.3,0-2.2,0.1-2.7,0.2v9.4H144z"/>
<path fill="#171112" d="M182.2,35.2h-6.8l-7.1-13.6l-2.3,3.1v10.5h-5.9V4.4h5.9v13.9h0.1c0.6-1.2,1.3-2.4,2-3.5l6.6-10.4h7
	l-9.3,13.2L182.2,35.2z"/>
<path fill="#171112" d="M207.6,35.2h-6.2l-2.2-8.1H191l-2.1,8.1h-6l8.7-30.8h7.4L207.6,35.2z M198.4,22.6l-1.8-7
	c-0.5-1.9-1-4.4-1.4-6.3H195c-0.4,1.9-0.9,4.4-1.4,6.2l-1.8,7H198.4z"/>
<path fill="#171112" d="M231.3,34.4c-1.2,0.6-3.6,1.2-6.8,1.2c-9.2,0-14.4-6.3-14.4-15.4C210.1,9.4,217,4,225.2,4
	c3.3,0,5.5,0.7,6.4,1.2l-1.2,4.8c-1.2-0.5-2.8-1-4.9-1c-5.1,0-9.2,3.5-9.2,10.9c0,7,3.6,10.7,9.1,10.7c1.8,0,3.8-0.4,5-0.9
	L231.3,34.4z"/>
<path fill="#171112" d="M258.1,35.2h-6.2l-2.2-8.1h-8.2l-2.1,8.1h-6l8.7-30.8h7.4L258.1,35.2z M248.9,22.6l-1.8-7
	c-0.5-1.9-1-4.4-1.4-6.3h-0.1c-0.4,1.9-0.9,4.4-1.4,6.2l-1.8,7H248.9z"/>
<path fill="#ED1F24" d="M279.8,35.2h-18.9v-3.6l3.4-3.6c5.7-5.9,9.1-9.8,9.1-13.9c0-2.6-1.4-4.8-4.7-4.8c-2.2,0-4.2,1.2-5.6,2.2
	l-1.6-4.2c1.9-1.4,5-2.7,8.5-2.7c6.5,0,9.4,4.1,9.4,9c0,5.4-3.6,9.8-8,14.2l-2.5,2.5v0.1h11.1V35.2z"/>
<path fill="#ED1F24" d="M291.9,35.2v-25h-0.1l-5.2,2.7l-1.3-4.2l7.4-3.8h5v30.2H291.9z"/>
</svg>
